<svg width="44" height="44" viewBox="0 0 44 44" fill="none" xmlns="http://www.w3.org/2000/svg">
<path d="M42.24 0H1.76C0.7865 0 0 0.7865 0 1.76V42.24C0 43.2135 0.7865 44 1.76 44H42.24C43.2135 44 44 43.2135 44 42.24V1.76C44 0.7865 43.2135 0 42.24 0ZM26.7575 13.1395H34.3695V14.993H26.7575V13.1395ZM22 28.424C21.644 29.0998 21.1356 29.6836 20.515 30.129C19.866 30.58 19.1455 30.91 18.381 31.1025C17.5812 31.3168 16.756 31.4223 15.928 31.416H6.82V12.6555H15.675C16.5715 12.6555 17.3855 12.738 18.128 12.892C18.865 13.046 19.492 13.31 20.02 13.6675C20.5425 14.025 20.955 14.5035 21.2465 15.0975C21.5325 15.686 21.681 16.423 21.681 17.2975C21.681 18.2435 21.4665 19.0245 21.0375 19.657C20.603 20.2895 19.976 20.801 19.1235 21.2025C20.284 21.5325 21.1365 22.121 21.6975 22.946C22.2695 23.782 22.55 24.783 22.55 25.96C22.55 26.917 22.3685 27.7365 22 28.424ZM37.334 25.52H27.522C27.522 26.587 27.8905 27.61 28.446 28.16C29.007 28.7045 29.81 28.9795 30.8605 28.9795C31.6195 28.9795 32.263 28.787 32.813 28.4075C33.3575 28.028 33.6875 27.6265 33.8085 27.2085H37.0975C36.5695 28.842 35.7665 30.008 34.6775 30.712C33.5995 31.416 32.2795 31.768 30.745 31.768C29.6725 31.768 28.71 31.592 27.8465 31.2565C27.016 30.932 26.268 30.437 25.652 29.799C25.0446 29.1438 24.5752 28.3732 24.2715 27.533C23.936 26.6035 23.771 25.6245 23.782 24.64C23.782 23.6225 23.9525 22.6765 24.2825 21.7965C24.915 20.086 26.2295 18.7165 27.907 18.007C28.8035 17.633 29.766 17.446 30.7395 17.457C31.8945 17.457 32.8955 17.677 33.7645 18.128C34.6011 18.5587 35.3275 19.1759 35.8875 19.932C36.443 20.6855 36.8335 21.5435 37.081 22.5115C37.3175 23.463 37.4 24.464 37.334 25.52V25.52ZM30.624 20.262C30.03 20.262 29.5295 20.3665 29.1445 20.57C28.7595 20.7735 28.4405 21.0265 28.1985 21.318C27.968 21.5995 27.7977 21.9252 27.698 22.275C27.61 22.5665 27.5495 22.8635 27.5275 23.166H33.605C33.517 22.2145 33.187 21.5105 32.747 21.0155C32.285 20.526 31.5425 20.262 30.624 20.262V20.262ZM16.9565 19.7065C17.435 19.36 17.666 18.788 17.666 18.0015C17.6825 17.6275 17.6055 17.259 17.4405 16.9235C17.292 16.654 17.072 16.4285 16.8025 16.269C16.5231 16.0995 16.2127 15.9874 15.8895 15.939C15.5375 15.873 15.18 15.84 14.828 15.8455H10.9615V20.229H15.147C15.8675 20.2345 16.478 20.0585 16.9565 19.7065V19.7065ZM17.6055 23.6665C17.0665 23.254 16.346 23.0505 15.4495 23.0505H10.9505V28.2205H15.3615C15.774 28.2205 16.1535 28.182 16.522 28.105C16.8905 28.028 17.2205 27.896 17.501 27.709C17.7815 27.5275 18.007 27.28 18.1775 26.961C18.3425 26.642 18.425 26.235 18.425 25.7455C18.425 24.772 18.15 24.0845 17.6055 23.6665V23.6665Z" fill="white"/>
</svg>
