<svg width="44" height="44" viewBox="0 0 44 44" fill="none" xmlns="http://www.w3.org/2000/svg">
<path d="M44 22C44 20.6 43.86 19.22 43.6 17.85C43.32 16.38 42.9 14.94 42.32 13.55C42.09 13 41.83 12.46 41.55 11.94C41.49 11.83 41.45 11.71 41.39 11.6C41.15 11.16 40.88 10.74 40.62 10.32C40.5 10.13 40.4 9.93 40.27 9.75C39.96 9.29 39.62 8.85 39.28 8.42C39.18 8.29 39.09 8.15 38.98 8.02C38.52 7.46 38.03 6.93 37.52 6.42C37.03 5.93 36.51 5.46 35.97 5.02C35.74 4.83 35.49 4.66 35.25 4.48C34.93 4.24 34.62 3.99 34.29 3.77C34.02 3.59 33.74 3.43 33.47 3.26C33.15 3.06 32.83 2.86 32.49 2.68C32.22 2.53 31.93 2.4 31.65 2.27C31.36 2.13 31.09 1.97 30.79 1.85C30.75 1.83 30.7 1.82 30.66 1.81C30.57 1.77 30.48 1.72 30.39 1.68C27.74 0.56 24.88 0 22 0C19.15 0 16.33 0.55 13.7 1.63L13.71 1.62C13.58 1.67 13.45 1.73 13.33 1.78C12.27 2.23 11.27 2.79 10.31 3.4C10.02 3.58 9.72 3.75 9.44 3.94C9.24 4.08 9.05 4.24 8.86 4.39C8.46 4.69 8.06 4.98 7.68 5.3C7.42 5.52 7.19 5.76 6.95 5.99C6.65 6.27 6.33 6.55 6.05 6.85C2.87 10.19 0.87 14.43 0.24 18.95C0.2 19.09 0.17 19.23 0.16 19.38C0.16 19.41 0.16 19.43 0.16 19.46C0.06 20.3 0 21.15 0 22C0 24.95 0.59 27.77 1.64 30.34C1.64 30.35 1.65 30.37 1.65 30.38C1.66 30.4 1.67 30.41 1.67 30.43C1.94 31.07 2.23 31.7 2.56 32.31C2.57 32.33 2.58 32.36 2.59 32.38C2.92 33 3.28 33.6 3.67 34.19C3.68 34.2 3.69 34.22 3.7 34.23C4.09 34.82 4.51 35.38 4.96 35.93C4.97 35.94 4.98 35.95 4.99 35.97C5.44 36.52 5.92 37.05 6.42 37.55L6.43 37.56L6.44 37.57L6.45 37.58C6.46 37.59 6.46 37.59 6.47 37.6C6.48 37.61 6.49 37.62 6.5 37.63C6.82 37.95 7.16 38.26 7.5 38.56C7.59 38.64 7.67 38.71 7.76 38.78C8.12 39.09 8.49 39.38 8.86 39.67C8.87 39.68 8.88 39.68 8.88 39.69C9.26 39.97 9.64 40.23 10.04 40.49C10.13 40.55 10.22 40.6 10.3 40.66C10.71 40.92 11.12 41.16 11.55 41.39C14.66 43.04 18.22 44 22 44C24.88 44 27.74 43.44 30.4 42.34C31.73 41.79 33 41.11 34.2 40.32C34.21 40.31 34.22 40.31 34.23 40.3C34.82 39.91 35.39 39.49 35.93 39.04C35.99 38.99 36.05 38.93 36.11 38.88C36.6 38.47 37.08 38.05 37.53 37.59C39.58 35.55 41.21 33.12 42.33 30.45C42.4 30.27 42.46 30.08 42.53 29.9C42.56 29.84 42.6 29.78 42.63 29.71C42.72 29.46 42.79 29.2 42.88 28.95C42.97 28.69 43.06 28.43 43.13 28.17C43.25 27.76 43.35 27.34 43.44 26.92C43.5 26.67 43.56 26.42 43.61 26.16C43.7 25.71 43.75 25.25 43.81 24.8C43.84 24.57 43.88 24.34 43.9 24.1C43.96 23.4 44 22.7 44 22ZM28.89 20.34C28.48 19.17 27.98 18 27.4 16.85C31.01 14.72 34.07 12.23 35.96 10.62C36.28 11.01 36.59 11.42 36.87 11.84C36.95 11.96 37.03 12.08 37.11 12.2C37.33 12.54 37.54 12.88 37.73 13.23C37.8 13.36 37.88 13.5 37.95 13.63C38.2 14.1 38.43 14.58 38.63 15.07C38.83 15.56 39.01 16.06 39.16 16.56C39.2 16.7 39.24 16.84 39.28 16.98C39.4 17.39 39.5 17.81 39.59 18.23C39.61 18.33 39.64 18.43 39.66 18.54C39.75 18.99 39.81 19.44 39.86 19.89C37.27 19.76 33.22 19.62 28.92 20.43L28.89 20.34ZM22 4C24.36 4 26.69 4.46 28.87 5.36C29.38 5.57 29.88 5.81 30.36 6.06C30.46 6.11 30.56 6.17 30.66 6.23C31.03 6.44 31.4 6.66 31.76 6.89C31.86 6.95 31.96 7.01 32.06 7.08C32.41 7.31 32.74 7.57 33.07 7.83C31.22 9.39 28.53 11.55 25.41 13.39C23.16 9.85 20.46 6.68 18.28 4.39C19.5 4.13 20.75 4 22 4ZM7.82 33.06C7.57 32.74 7.32 32.42 7.09 32.08C7.06 32.04 7.04 32 7.02 31.97C6.76 31.58 6.52 31.18 6.29 30.77C6.21 30.64 6.14 30.5 6.07 30.36C5.87 29.98 5.68 29.6 5.51 29.2C5.47 29.12 5.43 29.03 5.4 28.95C4.5 26.81 4 24.46 4 22C4 21.86 4.02 21.73 4.02 21.59C5.99 21.65 8.6 21.66 11.4 21.46C15.25 21.19 19.61 20.54 23.12 19.04C23.37 18.93 23.61 18.83 23.86 18.72C24.32 19.63 24.72 20.55 25.05 21.46C24.37 21.69 23.7 21.95 23.03 22.24C16.19 25.23 10.92 29.61 7.82 33.06ZM8.95 9.6C10.43 8.04 12.18 6.78 14.11 5.84C16.26 7.96 19.35 11.39 21.85 15.23C21.75 15.27 21.65 15.32 21.55 15.36C18.66 16.6 14.82 17.21 11.12 17.46C8.67 17.63 6.37 17.64 4.56 17.59C5.31 14.62 6.8 11.86 8.95 9.6ZM22 40C18.9 40 15.98 39.22 13.43 37.83C13.23 37.72 13.05 37.6 12.85 37.48C12.55 37.3 12.24 37.13 11.95 36.93C11.74 36.79 11.55 36.64 11.36 36.49C11.11 36.3 10.85 36.12 10.61 35.93C13.3 32.88 18.19 28.71 24.63 25.89C25.15 25.66 25.68 25.45 26.21 25.27C26.87 27.73 27.38 30.25 27.79 32.55C28.08 34.19 28.32 35.69 28.53 36.97L28.56 37.16C28.65 37.7 28.73 38.21 28.8 38.67C28.5 38.79 28.2 38.89 27.89 38.99C27.65 39.07 27.42 39.17 27.18 39.24C26.85 39.34 26.5 39.41 26.16 39.49C25.93 39.54 25.71 39.61 25.48 39.66C25.1 39.73 24.72 39.78 24.34 39.83C24.14 39.86 23.95 39.9 23.75 39.92C23.17 39.97 22.59 40 22 40ZM34.7 34.75C34.7 34.76 34.7 34.76 34.7 34.75C34.69 34.76 34.69 34.76 34.68 34.77C34.3 35.15 33.9 35.5 33.49 35.84C33.36 35.95 33.22 36.05 33.09 36.16C32.9 36.31 32.71 36.44 32.52 36.58L32.51 36.52L32.48 36.33C32.28 35.05 32.03 33.52 31.73 31.84C31.31 29.52 30.78 26.89 30.09 24.29C33.81 23.65 37.34 23.81 39.88 23.93H39.89C39.84 24.41 39.77 24.89 39.68 25.36C39.66 25.48 39.63 25.6 39.61 25.71C39.5 26.22 39.38 26.72 39.23 27.22V27.23C39.06 27.79 38.86 28.35 38.63 28.9C37.72 31.1 36.38 33.08 34.7 34.75Z" fill="white"/>
</svg>
