<svg width="43" height="43" viewBox="0 0 43 43" fill="none" xmlns="http://www.w3.org/2000/svg">
<path fill-rule="evenodd" clip-rule="evenodd" d="M12.6361 0.129C14.9288 0.0234545 15.6598 0 21.5 0C27.3401 0 28.0711 0.025409 30.3619 0.129C32.6526 0.23259 34.2162 0.59809 35.5844 1.12777C37.0171 1.66918 38.3168 2.51549 39.3918 3.61004C40.4864 4.68308 41.3307 5.9809 41.8702 7.41553C42.4018 8.78371 42.7654 10.3473 42.8709 12.6342C42.9765 14.9307 42.9999 15.6617 42.9999 21.5C42.9999 27.3401 42.9745 28.0711 42.8709 30.3638C42.7673 32.6506 42.4018 34.2143 41.8702 35.5824C41.3307 37.0172 40.485 38.3172 39.3918 39.3918C38.3168 40.4864 37.0171 41.3307 35.5844 41.8702C34.2162 42.4018 32.6526 42.7654 30.3658 42.8709C28.0711 42.9765 27.3401 42.9999 21.5 42.9999C15.6598 42.9999 14.9288 42.9745 12.6361 42.8709C10.3493 42.7673 8.78566 42.4018 7.41749 41.8702C5.9827 41.3307 4.68273 40.4849 3.60808 39.3918C2.51428 38.3181 1.66784 37.0188 1.12777 35.5844C0.59809 34.2162 0.234545 32.6526 0.129 30.3658C0.0234545 28.0692 0 27.3382 0 21.5C0 15.6598 0.025409 14.9288 0.129 12.6381C0.23259 10.3473 0.59809 8.78371 1.12777 7.41553C1.66864 5.98106 2.51573 4.68174 3.61004 3.60808C4.68316 2.51452 5.98182 1.66809 7.41553 1.12777C8.78371 0.59809 10.3473 0.234545 12.6342 0.129H12.6361ZM30.1879 3.99899C27.9206 3.8954 27.2404 3.8739 21.5 3.8739C15.7595 3.8739 15.0793 3.8954 12.812 3.99899C10.7148 4.09476 9.57725 4.44463 8.81889 4.73976C7.81621 5.13067 7.0989 5.5939 6.3464 6.3464C5.63308 7.04036 5.08412 7.88517 4.73976 8.81889C4.44463 9.57725 4.09476 10.7148 3.99899 12.812C3.8954 15.0793 3.8739 15.7595 3.8739 21.5C3.8739 27.2404 3.8954 27.9206 3.99899 30.1879C4.09476 32.2851 4.44463 33.4227 4.73976 34.181C5.08376 35.1133 5.63299 35.9597 6.3464 36.6535C7.04026 37.3669 7.88658 37.9162 8.81889 38.2602C9.57725 38.5553 10.7148 38.9052 12.812 39.0009C15.0793 39.1045 15.7575 39.126 21.5 39.126C27.2424 39.126 27.9206 39.1045 30.1879 39.0009C32.2851 38.9052 33.4227 38.5553 34.181 38.2602C35.1837 37.8692 35.901 37.406 36.6535 36.6535C37.3669 35.9597 37.9162 35.1133 38.2602 34.181C38.5553 33.4227 38.9052 32.2851 39.0009 30.1879C39.1045 27.9206 39.126 27.2404 39.126 21.5C39.126 15.7595 39.1045 15.0793 39.0009 12.812C38.9052 10.7148 38.5553 9.57725 38.2602 8.81889C37.8692 7.81621 37.406 7.0989 36.6535 6.3464C35.9595 5.63313 35.1147 5.08417 34.181 4.73976C33.4227 4.44463 32.2851 4.09476 30.1879 3.99899V3.99899ZM18.7538 28.1278C20.2875 28.7662 21.9952 28.8524 23.5853 28.3716C25.1754 27.8908 26.5493 26.8728 27.4723 25.4916C28.3952 24.1104 28.8101 22.4516 28.6459 20.7985C28.4817 19.1454 27.7486 17.6006 26.572 16.4279C25.8219 15.6783 24.915 15.1043 23.9164 14.7473C22.9179 14.3903 21.8526 14.2591 20.7973 14.3632C19.742 14.4673 18.7229 14.804 17.8133 15.3493C16.9038 15.8945 16.1264 16.6346 15.5372 17.5163C14.9481 18.398 14.5617 19.3994 14.406 20.4483C14.2503 21.4973 14.329 22.5677 14.6367 23.5826C14.9443 24.5974 15.4731 25.5314 16.185 26.3174C16.8969 27.1033 17.7743 27.7216 18.7538 28.1278ZM13.6857 13.6857C14.7119 12.6595 15.9301 11.8455 17.2709 11.2901C18.6117 10.7348 20.0487 10.4489 21.5 10.4489C22.9512 10.4489 24.3882 10.7348 25.729 11.2901C27.0698 11.8455 28.288 12.6595 29.3142 13.6857C30.3404 14.7119 31.1544 15.9301 31.7098 17.2709C32.2651 18.6117 32.551 20.0487 32.551 21.5C32.551 22.9512 32.2651 24.3882 31.7098 25.729C31.1544 27.0698 30.3404 28.288 29.3142 29.3142C27.2417 31.3867 24.4309 32.551 21.5 32.551C18.569 32.551 15.7582 31.3867 13.6857 29.3142C11.6132 27.2417 10.4489 24.4309 10.4489 21.5C10.4489 18.569 11.6132 15.7582 13.6857 13.6857V13.6857ZM35.0019 12.0947C35.2562 11.8548 35.4598 11.5664 35.6006 11.2464C35.7414 10.9264 35.8166 10.5814 35.8217 10.2319C35.8268 9.88234 35.7617 9.53532 35.6303 9.21138C35.4989 8.88744 35.3038 8.59316 35.0566 8.34597C34.8094 8.09878 34.5151 7.90369 34.1912 7.77227C33.8672 7.64085 33.5202 7.57576 33.1707 7.58085C32.8211 7.58595 32.4761 7.66113 32.1562 7.80194C31.8362 7.94275 31.5477 8.14633 31.3078 8.40062C30.8413 8.89518 30.5859 9.55208 30.5958 10.2319C30.6057 10.9117 30.8802 11.5609 31.3609 12.0416C31.8417 12.5224 32.4909 12.7968 33.1707 12.8067C33.8505 12.8167 34.5074 12.5612 35.0019 12.0947V12.0947Z" fill="white"/>
</svg>
